<svg width="106" height="68" viewBox="0 0 106 68" fill="none" xmlns="http://www.w3.org/2000/svg">
<g filter="url(#filter0_d)">
<path d="M15.0174 55.0414C14.8793 56.6018 14.341 57.8183 13.4028 58.691C12.4645 59.5637 11.2298 60 9.69862 60C7.94876 60 6.56148 59.4192 5.53691 58.2576C4.51226 57.0959 4 55.5269 4 53.5504C4 51.7011 4.51515 50.1609 5.54553 48.9299C6.57591 47.699 8.00059 47.0835 9.81954 47.0835C11.1204 47.0835 12.2659 47.436 13.2561 48.1411C14.2461 48.8461 14.7987 49.8228 14.9138 51.0711H13.2906C13.1064 50.2621 12.7034 49.6292 12.0818 49.1727C11.4601 48.7161 10.6945 48.4878 9.78503 48.4878C8.41503 48.4878 7.38178 48.9733 6.68531 49.9442C5.98877 50.9151 5.64054 52.1114 5.64054 53.5331C5.64054 55.105 6.00896 56.3418 6.74572 57.2433C7.48249 58.1449 8.48985 58.5957 9.76774 58.5957C10.8154 58.5957 11.6501 58.2922 12.2717 57.6854C12.8934 57.0786 13.2676 56.1973 13.3942 55.0414H15.0174H15.0174ZM27.0364 47.3609L31.8372 59.7053H30.0239L28.6597 55.9257H23.4964L22.0976 59.7053H20.3707L25.206 47.3609H27.0364H27.0364ZM28.1762 54.6253L26.0867 48.9213L23.9626 54.6253H28.1762H28.1762ZM37.933 47.3609H42.9927C44.2476 47.3609 45.2434 47.647 45.9802 48.2191C46.717 48.7912 47.0854 49.6899 47.0854 50.9151C47.0854 53.4002 45.6866 54.6427 42.8891 54.6427H39.5562V59.7053H37.933V47.3609ZM39.5562 48.7652V53.2731H42.6819C43.5569 53.2731 44.2389 53.1083 44.7283 52.7789C45.2175 52.4495 45.4621 51.8629 45.4621 51.0191C45.4621 50.5452 45.3844 50.1522 45.229 49.8402C45.0736 49.5281 44.8462 49.2969 44.5469 49.1467C44.2476 48.9964 43.9367 48.8953 43.6144 48.8432C43.292 48.7912 42.9063 48.7652 42.4574 48.7652H39.5562L39.5562 48.7652ZM55.547 47.3609V59.7053H53.9238V47.3609H55.547ZM71.6588 47.3609V48.7826H67.5316V59.7053H65.9083V48.7826H61.7811V47.3609H71.6588ZM83.0043 47.3609L87.8051 59.7053H85.9918L84.6276 55.9257H79.4643L78.0655 59.7053H76.3386L81.1739 47.3609H83.0043H83.0043ZM84.1441 54.6253L82.0546 48.9213L79.9305 54.6253H84.1441H84.1441ZM102 58.2836V59.7053H93.8491V47.3609H95.4723V58.2836H102V58.2836Z" fill="#2B2A29"/>
<path fill-rule="evenodd" clip-rule="evenodd" d="M15.654 36.7158L30.5016 11.2874L36.8777 0L48.5353 20.3915L40.96 33.3341H30.926L28.9514 36.7158H15.654H15.654ZM69.3909 36.7158H68.7179H53.1H39.8025L54.6501 11.2874L60.52 0.89599L66.7314 11.3806L58.7206 27.0898H63.0971L69.371 27.0778L69.3909 36.7157L69.3909 36.7158ZM67.2602 10.6586C69.182 10.6616 70.143 10.6631 70.143 10.6631L70.1992 36.7158H80.9716L80.9145 10.6291C87.3196 10.6359 90.5222 10.6394 90.5222 10.6394L90.5218 0.0633222H61.1007L67.2602 10.6586ZM38.9487 27.0899L36.7604 23.3423L34.5721 27.0899H38.9487Z" fill="#2B2A29"/>
<path fill-rule="evenodd" clip-rule="evenodd" d="M15.4775 37.0294L30.3251 11.6009L36.7012 0.313538L48.3589 20.705L40.7835 33.6477H30.7495L28.775 37.0294H15.4775ZM69.2145 37.0294H68.5414H52.9235H39.626L54.4736 11.601L60.3436 1.20958L66.555 11.6941L58.5442 27.4034H62.9207L69.1945 27.3914L69.2145 37.0294H69.2145ZM67.0837 10.9722C69.0056 10.9752 69.9666 10.9767 69.9666 10.9767L70.0227 37.0294H80.7951L80.7381 10.9426C87.1432 10.9495 90.3457 10.9529 90.3457 10.9529L90.3453 0.37686H60.9242L67.0837 10.9723V10.9722ZM38.7723 27.4035L36.5839 23.6558L34.3957 27.4035H38.7723Z" fill="#2B2B2B"/>
</g>
<defs>
<filter id="filter0_d" x="0" y="0" width="106" height="68" filterUnits="userSpaceOnUse" color-interpolation-filters="sRGB">
<feFlood flood-opacity="0" result="BackgroundImageFix"/>
<feColorMatrix in="SourceAlpha" type="matrix" values="0 0 0 0 0 0 0 0 0 0 0 0 0 0 0 0 0 0 127 0"/>
<feOffset dy="4"/>
<feGaussianBlur stdDeviation="2"/>
<feColorMatrix type="matrix" values="0 0 0 0 0 0 0 0 0 0 0 0 0 0 0 0 0 0 0.25 0"/>
<feBlend mode="normal" in2="BackgroundImageFix" result="effect1_dropShadow"/>
<feBlend mode="normal" in="SourceGraphic" in2="effect1_dropShadow" result="shape"/>
</filter>
</defs>
</svg>
