<svg width="86" height="86" viewBox="0 0 86 86" fill="none" xmlns="http://www.w3.org/2000/svg">
<g clip-path="url(#clip0)">
<path d="M81.7 9.01227H4.31011C1.93415 9.01227 -7.62939e-06 10.9464 -7.62939e-06 13.3241C-7.62939e-06 15.699 1.92184 17.6325 4.31011 17.6325H81.7C83.2497 17.6325 84.7117 18.0102 86 18.6814V13.3123C86 10.9414 84.0709 9.01227 81.7 9.01227Z" fill="#F7F8FC"/>
<path d="M81.7 22.6913H4.31011C2.78403 22.6913 1.31529 22.3305 -7.62939e-06 21.6475V72.6877C-7.62939e-06 75.0586 1.92909 76.9877 4.29999 76.9877H81.7C84.0709 76.9877 86 75.0586 86 72.6877V60.1941C85.872 60.1941 65.4323 60.1959 65.3043 60.1907C65.3027 60.1924 65.301 60.1907 65.301 60.1907C59.652 60.1216 55.0771 55.5045 55.0771 49.8387C55.0771 44.1306 59.7228 39.4849 65.4308 39.4849H86C86 36.9943 86 29.5954 86 26.9913C86 24.6245 84.0728 22.6913 81.7 22.6913Z" fill="#F7F8FC"/>
<path d="M74.3242 55.1353H86V44.5438H74.3242C76.2689 47.7929 76.2759 51.8705 74.3242 55.1353Z" fill="#F7F8FC"/>
<path d="M60.1359 49.8387C60.1359 52.775 62.5304 55.1336 65.4308 55.1336C68.3531 55.1336 70.7257 52.7575 70.7257 49.8387C70.7257 46.9228 68.3535 44.5438 65.4308 44.5438C62.5212 44.5438 60.1359 46.9139 60.1359 49.8387Z" fill="#F7F8FC"/>
</g>
<defs>
<clipPath id="clip0">
<rect width="86" height="86" fill="white"/>
</clipPath>
</defs>
</svg>
